# xmcd
# 
# Track frame offsets:
#     150
#     12177
#     28467
#     42260
#     56150
#     67277
#     81032
#     92527
#     111339
#     115917
#     128885
#     143312
#     152660
#     169442
#     182290
#     193290
#     204192
#     217197
#     227565
#     238005
#     251671
#     264302
#     275974
#     285352
#     298274
#     310047
#     322732
# 
# Disc length: 4521
# 
# Revision: 1
# Processed by: cddbd v1.5.2PL0 Copyright (c) Steve Scherf et al.
# Submitted via: fre:ac v1.0.17
# 
DISCID=9111a71b
DTITLE=B. B. KING - THE COMPLETE RPM - KENT RECORDING BOX
DYEAR=2015
DGENRE=Blues
TTITLE0=That's How Much You Mean To Me (with B.B.'s Plea)
TTITLE1=Going Home
TTITLE2=Jesus Gave Me Water
TTITLE3=Save A Seat For Me
TTITLE4=Ole Time Religion
TTITLE5=Servant's Prayer
TTITLE6=Pray For You - take 1
TTITLE7=You Done Lost Your Good Thing Now - alt. take
TTITLE8=Radio Spot For A Kent LP
TTITLE9=Please Set The Date
TTITLE10=Don't Care Anymore
TTITLE11=I'm In Love With A Woman
TTITLE12=Sweet Little Angel - take 1 with false starts
TTITLE13=You're On Top
TTITLE14=You Won't Listen
TTITLE15=What A Way To Spend The Night
TTITLE16=Early This Morning - take 2
TTITLE17=Love Oh Love - take 3
TTITLE18=Running Wild
TTITLE19=The Wrong Road
TTITLE20=Be Careful Baby
TTITLE21=Did You Ever Love A Woman
TTITLE22=Endless Night (What Have I Done Wrong)
TTITLE23=Christmas Celebration - take 3
TTITLE24=I Never Heard A Man
TTITLE25=I'm Working On The Building
TTITLE26=I'm Willing To Run All The Way
EXTD=
EXTT0=
EXTT1=
EXTT2=
EXTT3=
EXTT4=
EXTT5=
EXTT6=
EXTT7=
EXTT8=
EXTT9=
EXTT10=
EXTT11=
EXTT12=
EXTT13=
EXTT14=
EXTT15=
EXTT16=
EXTT17=
EXTT18=
EXTT19=
EXTT20=
EXTT21=
EXTT22=
EXTT23=
EXTT24=
EXTT25=
EXTT26=
PLAYORDER=
